<svg width="32" height="32" viewBox="0 0 32 32" fill="none" xmlns="http://www.w3.org/2000/svg">
<g id="Boy">
<g id="Group">
<path id="Vector" d="M23.0194 18.0263C23.4066 17.5355 23.7431 17.0032 24.0219 16.4375H25C26.8954 16.4375 28.4375 14.8954 28.4375 13C28.4375 11.6116 27.6096 10.4137 26.422 9.87169C26.1271 4.37856 21.5654 0 16 0C10.4346 0 5.87287 4.37856 5.578 9.87169C4.39038 10.4137 3.5625 11.6116 3.5625 13C3.5625 14.8954 5.10456 16.4375 7 16.4375H7.97813C8.25694 17.0032 8.59344 17.5355 8.98056 18.0263C6.5855 18.9268 4.65006 20.7698 3.63831 23.1307C3.58831 23.2474 3.5625 23.3731 3.5625 23.5V31.0625C3.5625 31.5802 3.98225 32 4.5 32H27.5C28.0177 32 28.4375 31.5802 28.4375 31.0625V23.5C28.4375 23.3731 28.4117 23.2474 28.3617 23.1307C27.3499 20.7698 25.4145 18.9268 23.0194 18.0263ZM9.01694 11.4375H9.66294C11.6889 11.4375 13.6779 10.8866 15.4151 9.84425L17.3757 8.66788C18.9659 10.0648 20.8904 10.9672 22.9596 11.2969C23.7052 15.6483 20.3401 19.5625 16 19.5625C11.7146 19.5625 8.36862 15.7429 9.01694 11.4375ZM25 14.5625H24.6969C24.9357 13.555 25.0004 12.5034 24.874 11.4375H25C25.8616 11.4375 26.5625 12.1384 26.5625 13C26.5625 13.8616 25.8616 14.5625 25 14.5625ZM16 1.875C20.4251 1.875 24.077 5.24912 24.5179 9.55987C22.1166 9.50331 19.8673 8.5415 18.1629 6.83712C17.8587 6.533 17.3866 6.47481 17.0177 6.69613L14.4504 8.2365C13.0046 9.10394 11.3491 9.5625 9.66294 9.5625H7.48187C7.92156 5.25063 11.574 1.875 16 1.875ZM7 14.5625C6.13844 14.5625 5.4375 13.8616 5.4375 13C5.4375 12.1384 6.13844 11.4375 7 11.4375H7.12531C7.00175 12.4791 7.06 13.5371 7.30312 14.5625H7ZM5.4375 25.2517L8.0625 27.0017V30.125H5.4375V25.2517ZM9.9375 24C9.9375 23.4823 9.51775 23.0625 9 23.0625C8.48225 23.0625 8.0625 23.4823 8.0625 24V24.7483L5.70256 23.1749C6.61437 21.5358 8.11288 20.2839 9.909 19.6852L10.4541 19.5036C11.9791 20.7137 13.9065 21.4375 16 21.4375C18.0935 21.4375 20.0209 20.7137 21.5459 19.5036L22.0911 19.6852C23.8872 20.2839 25.3857 21.5359 26.2975 23.175L23.9375 24.7483V24C23.9375 23.4823 23.5177 23.0625 23 23.0625C22.4823 23.0625 22.0625 23.4823 22.0625 24V30.125H9.9375V24ZM23.9375 30.125V27.0017L26.5625 25.2517V30.125H23.9375Z" fill="black"/>
<path id="Vector_2" d="M18.02 16.7799C18.4508 16.4928 18.5672 15.9107 18.2801 15.4799C17.9928 15.049 17.4107 14.9326 16.98 15.2199C16.3847 15.6168 15.6154 15.6168 15.0201 15.2199C14.5893 14.9326 14.0072 15.049 13.72 15.4799C13.4328 15.9107 13.5493 16.4928 13.9801 16.7799C14.5936 17.189 15.2969 17.3935 16.0001 17.3935C16.7033 17.3935 17.4064 17.189 18.02 16.7799Z" fill="black"/>
</g>
</g>
</svg>
