<svg width="80" height="80" viewBox="0 0 80 80" fill="none" xmlns="http://www.w3.org/2000/svg">
<g id="Best choice" clip-path="url(#clip0_2_163)">
<path id="Vector" d="M70.1255 20.1468H62.4278V8.68139C62.4278 3.93068 58.588 0.0644531 53.8084 0.0644531C50.4398 0.0644531 47.6993 2.80495 47.6993 6.17354C47.6993 8.1911 47.1787 10.1838 46.1953 11.945C24.0453 4.09098 -0.361244 21.587 0.004051 45.1489C0.570587 82.6215 50.6189 93.2412 66.6316 59.9784H70.1255C75.566 59.9784 80 55.577 80 50.1038V30.0213C80 24.5664 75.5883 20.1468 70.1255 20.1468ZM34.9812 14.7928C38.0082 14.7928 40.9709 15.2328 43.8212 16.1035L38.6418 25.1673H34.8146V25.0008C34.8146 23.7065 33.7653 22.6571 32.471 22.6571H24.7734V22.4904C24.7734 21.1961 23.724 20.1468 22.4297 20.1468H17.7731C22.7864 16.664 28.725 14.7928 34.9812 14.7928ZM30.1273 27.3444V52.7807H24.7734V27.3444H30.1273ZM4.69102 45.0831C4.69102 37.5597 7.44339 30.4077 12.4627 24.8341H20.0861V55.2911H6.45625C5.28427 52.0255 4.69102 48.5987 4.69102 45.0831ZM51.9696 70.1577C42.0121 77.084 27.9502 77.084 17.9927 70.1577C14.0926 67.5083 10.894 64.0313 8.60318 59.9782H22.4296C23.7239 59.9782 24.7732 58.9289 24.7732 57.6346V57.4679H32.4708C33.5695 57.4679 34.4918 56.712 34.7454 55.6915L36.1394 57.0851C38.0048 58.9506 40.4843 59.9781 43.1209 59.9781H61.3591C59.0683 64.0313 55.8697 67.5083 51.9696 70.1577ZM75.3127 50.1037C75.3127 52.9739 72.9883 55.2909 70.1255 55.2909H43.1209C41.7565 55.2909 40.4198 54.7369 39.4533 53.7704C37.8754 52.1936 35.8546 50.1729 34.8146 49.1329V29.8546H40.0019C40.8429 29.8546 41.6194 29.404 42.0366 28.6737L50.2105 14.3696C51.634 11.8769 52.3866 9.04278 52.3866 6.17339C52.3866 5.38936 53.0244 4.75158 53.8109 4.75158C55.9919 4.75158 57.7404 6.51618 57.7404 8.68124V22.4903C57.7404 23.7846 58.7897 24.8339 60.0841 24.8339H70.1253C72.9864 24.8339 75.3126 27.1463 75.3126 30.0212L75.3127 50.1037Z" fill="black"/>
</g>
<defs>
<clipPath id="clip0_2_163">
<rect width="80" height="80" fill="white"/>
</clipPath>
</defs>
</svg>
