<svg width="44" height="44" viewBox="0 0 44 44" fill="none" xmlns="http://www.w3.org/2000/svg">
<g id="Cottage">
<g id="Group">
<path id="Vector" d="M42.7109 38.8008H41.293V25.9961H42.6207C43.4989 25.9961 44.1207 25.135 43.8443 24.3014L38.688 8.74672C38.5132 8.21932 38.0201 7.86328 37.4645 7.86328H33.6059V3.91016C33.6059 3.19825 33.0287 2.62109 32.3168 2.62109H27.1605C26.4486 2.62109 25.8715 3.19825 25.8715 3.91016V7.86328H6.53555C5.97988 7.86328 5.48677 8.21932 5.31197 8.74672L0.155719 24.3014C-0.12057 25.135 0.501101 25.9961 1.3793 25.9961H2.70703V38.8008H1.28906C0.577156 38.8008 0 39.3779 0 40.0898C0 40.8018 0.577156 41.3789 1.28906 41.3789H42.7109C43.4228 41.3789 44 40.8018 44 40.0898C44 39.3779 43.4228 38.8008 42.7109 38.8008ZM28.4496 5.19922H31.0277V7.86328H28.4496V5.19922ZM7.46625 10.4414H36.5337L40.8354 23.418H27.738L22.9191 18.518C22.4141 18.0045 21.5856 18.0046 21.0807 18.5182L16.2646 23.418H3.16465L7.46625 10.4414ZM5.28516 25.9961H16.8051C17.1508 25.9961 17.482 25.8572 17.7244 25.6107L22.0003 21.2606L26.2786 25.6109C26.5208 25.8573 26.852 25.9961 27.1976 25.9961H38.7148V38.8008H25.8629V29.7773C25.8629 29.0654 25.2857 28.4883 24.5738 28.4883H19.4262C18.7143 28.4883 18.1371 29.0654 18.1371 29.7773V38.8008H5.28516V25.9961ZM23.2848 38.8008H20.7152V31.0664H23.2848V38.8008Z" fill="#806A50"/>
<path id="Vector_2" d="M29.7387 36.2227H34.8949C35.6068 36.2227 36.184 35.6455 36.184 34.9336V29.7773C36.184 29.0654 35.6068 28.4883 34.8949 28.4883H29.7387C29.0268 28.4883 28.4496 29.0654 28.4496 29.7773V34.9336C28.4496 35.6455 29.0268 36.2227 29.7387 36.2227ZM31.0277 31.0664H33.6059V33.6445H31.0277V31.0664Z" fill="#806A50"/>
<path id="Vector_3" d="M14.2699 28.4883H9.11368C8.40177 28.4883 7.82462 29.0654 7.82462 29.7773V34.9336C7.82462 35.6455 8.40177 36.2227 9.11368 36.2227H14.2699C14.9818 36.2227 15.559 35.6455 15.559 34.9336V29.7773C15.559 29.0654 14.9818 28.4883 14.2699 28.4883ZM12.9809 33.6445H10.4027V31.0664H12.9809V33.6445Z" fill="#806A50"/>
</g>
</g>
</svg>
