<svg width="32" height="32" viewBox="0 0 32 32" fill="none" xmlns="http://www.w3.org/2000/svg">
<g id="House with heart" clip-path="url(#clip0_2_282)">
<g id="Group">
<g id="Artwork_24_">
<g id="Layer_5_24_">
<path id="Vector" d="M31.2901 13.9323L18.1046 2.87647C16.9471 1.90588 15.0529 1.90588 13.8955 2.87647L0.70991 13.9323C-0.447629 14.9028 -0.158844 15.6969 1.3518 15.6969H4.51053C4.51053 15.6969 4.83075 15.7111 4.83075 16C4.83075 18.9136 4.83075 27.6543 4.83075 27.6543C4.83075 28.8677 5.81452 29.8515 7.02798 29.8515H24.972C26.1856 29.8515 27.1692 28.8678 27.1692 27.6543C27.1692 27.6543 27.1692 18.8972 27.1692 15.9783C27.1692 15.7112 27.4593 15.697 27.4593 15.697H30.6482C32.1589 15.6969 32.4478 14.9028 31.2901 13.9323ZM21.5504 21.6701C20.6617 23.0218 16.8353 26.2361 16.0058 26.2361C15.1939 26.236 11.3328 23.0102 10.4496 21.6701C10.0076 20.9994 9.69394 20.2589 9.74575 19.2858C9.83816 17.5633 11.2465 16.1407 12.9714 16.1407C14.7447 16.1408 15.7774 18.0327 16.0001 18.0328C16.255 18.0328 17.3317 16.1407 19.0288 16.1408C20.7538 16.1407 22.1621 17.5631 22.2543 19.2857C22.3064 20.2589 21.9937 20.9963 21.5504 21.6701Z" fill="white"/>
</g>
</g>
</g>
</g>
<defs>
<clipPath id="clip0_2_282">
<rect width="32" height="32" fill="white"/>
</clipPath>
</defs>
</svg>
