<svg width="80" height="80" viewBox="0 0 80 80" fill="none" xmlns="http://www.w3.org/2000/svg">
<g id="Safari" clip-path="url(#clip0_2_160)">
<path id="Vector" d="M78.3002 45.2362L62.4268 40.7007V37.4481C62.4268 36.8262 62.1802 36.2305 61.7407 35.791L46.6779 20.7281C46.2384 20.2887 45.6427 20.0415 45.0208 20.0415H41.4484L38.7714 14.6875H45.0208C46.3153 14.6875 47.3645 13.6383 47.3645 12.3438C47.3645 11.0492 46.3153 10 45.0208 10H4.85413C3.55957 10 2.51038 11.0492 2.51038 12.3438C2.51038 13.6383 3.55957 14.6875 4.85413 14.6875H10.9369L13.6139 20.0415H2.34375C1.04919 20.0415 0 21.0913 0 22.3853V55.0208C0 55.9796 0.583496 56.8408 1.47339 57.1973L12.691 61.684C13.476 66.3501 17.5415 69.917 22.4268 69.917C27.0648 69.917 30.9637 66.7023 32.019 62.3853H50.4919C51.5466 66.7023 55.4456 69.917 60.0836 69.917C64.7211 69.917 68.62 66.7023 69.6753 62.3853H77.6562C78.9508 62.3853 80 61.3361 80 60.0415V47.4896C80 46.4435 79.3066 45.5237 78.3002 45.2362ZM57.7393 38.4186V40.1251H44.8541V34.7711H54.0918L57.7393 38.4186ZM16.1774 14.6875H33.5309L36.2079 20.0421H18.855L16.1774 14.6875ZM22.4268 65.2295C19.5667 65.2295 17.2394 62.9022 17.2394 60.0415C17.2394 57.1814 19.5667 54.8541 22.4268 54.8541C25.2875 54.8541 27.6147 57.1814 27.6147 60.0415C27.6147 62.9022 25.2875 65.2295 22.4268 65.2295ZM60.083 65.2295C57.2229 65.2295 54.8956 62.9022 54.8956 60.0415C54.8956 57.1814 57.2229 54.8541 60.083 54.8541C62.9437 54.8541 65.271 57.1814 65.271 60.0415C65.271 62.9022 62.9437 65.2295 60.083 65.2295ZM75.3125 57.6978H69.6753C68.62 53.3807 64.7211 50.1666 60.083 50.1666C55.4456 50.1666 51.5466 53.3807 50.4913 57.6978H32.019C30.9637 53.3807 27.0648 50.1666 22.4268 50.1666C18.1177 50.1666 14.4464 52.9425 13.1012 56.7999L4.6875 53.4338V24.729H44.0503L49.4043 30.0836H42.5104C41.2158 30.0836 40.1666 31.1328 40.1666 32.4274V42.4689C40.1666 43.7634 41.2158 44.8126 42.5104 44.8126H59.7552L75.3125 49.2578V57.6978Z" fill="black"/>
<path id="Vector_2" d="M32.4689 30.0835H12.3853C11.0913 30.0835 10.0415 31.1327 10.0415 32.4272V42.4688C10.0415 43.7633 11.0913 44.8125 12.3853 44.8125H32.4689C33.7634 44.8125 34.8126 43.7633 34.8126 42.4688V32.4272C34.8126 31.1327 33.7634 30.0835 32.4689 30.0835ZM30.1251 40.125H14.729V34.771H30.1251V40.125Z" fill="black"/>
</g>
<defs>
<clipPath id="clip0_2_160">
<rect width="80" height="80" fill="white"/>
</clipPath>
</defs>
</svg>
