<svg width="80" height="80" viewBox="0 0 80 80" fill="none" xmlns="http://www.w3.org/2000/svg">
<g id="Success" clip-path="url(#clip0_2_149)">
<g id="Group">
<path id="Vector" d="M39.8697 29.8064C33.9574 29.8064 29.146 34.6163 29.146 40.5285C29.146 46.4408 33.9574 51.2506 39.8697 51.2506C45.782 51.2506 50.5918 46.4408 50.5918 40.5285C50.5918 34.6163 45.782 29.8064 39.8697 29.8064ZM39.8697 46.4852C36.5848 46.4852 33.9114 43.8134 33.9114 40.5285C33.9114 37.2436 36.5848 34.5718 39.8697 34.5718C43.1531 34.5718 45.8264 37.2436 45.8264 40.5285C45.8264 43.8133 43.1531 46.4852 39.8697 46.4852Z" fill="black"/>
<path id="Vector_2" d="M62.0111 28.24C58.0035 28.24 54.7423 31.5011 54.7423 35.5105V40.3077C54.7423 48.4374 48.1296 55.0502 40.0014 55.0502C31.8717 55.0502 25.2573 48.4374 25.2573 40.3077V35.5105C25.2573 31.5013 21.9962 28.24 17.9869 28.24C13.9792 28.24 10.7197 31.5011 10.7197 35.5105V40.2187C10.7197 49.2444 14.9164 57.7887 22.0089 63.3213V77.6175C22.0089 78.9327 23.0748 80.0002 24.3916 80.0002H55.3333C56.6485 80.0002 57.7159 78.9327 57.7159 77.6175V63.4595C64.98 57.865 69.2799 49.1618 69.2799 39.928V35.5105C69.2799 31.5013 66.0204 28.24 62.0111 28.24ZM52.9506 62.2555V75.2348H26.7743V62.1268C26.7743 61.358 26.401 60.6352 25.7752 60.1873C19.3308 55.5887 15.4851 48.1245 15.4851 40.2187V35.5105C15.4851 34.1286 16.6066 33.0054 17.9869 33.0054C19.3689 33.0054 20.4919 34.1284 20.4919 35.5105V40.3077C20.4919 51.0648 29.2428 59.8156 40.0014 59.8156C50.7569 59.8156 59.5077 51.0648 59.5077 40.3077V35.5105C59.5077 34.1286 60.6308 33.0054 62.0127 33.0054C63.3931 33.0054 64.5146 34.1284 64.5146 35.5105V39.928C64.5146 48.034 60.5688 55.6522 53.9608 60.308C53.327 60.7544 52.9506 61.4803 52.9506 62.2555Z" fill="black"/>
<path id="Vector_3" d="M30.612 17.8912L30.2451 24.9567C30.1565 26.6961 31.9016 27.9327 33.5046 27.2933L39.9998 24.7121L46.4951 27.2933C48.1008 27.9303 49.8432 26.6975 49.7546 24.9567L49.3877 17.8912L53.7718 12.5651C54.8632 11.2438 54.2372 9.22362 52.5773 8.75756L45.8025 6.853L41.9886 1.06941C41.05 -0.357026 38.9489 -0.355915 38.0111 1.06941L34.1972 6.853L27.4224 8.75756C25.7598 9.22441 25.1384 11.2462 26.2279 12.5651L30.612 17.8912ZM37.687 10.2191L39.9998 6.7102L42.3126 10.2191C42.6288 10.6972 43.1053 11.0467 43.6581 11.2008L47.7722 12.3572L45.121 15.577C44.743 16.0361 44.5508 16.619 44.581 17.2147L44.8034 21.494L40.8799 19.9341C40.3174 19.7097 39.6826 19.7095 39.1198 19.9341L35.1963 21.494L35.4187 17.2147C35.4489 16.619 35.2567 16.0361 34.8786 15.577L32.2275 12.3572L36.3416 11.2008C36.8944 11.0467 37.3709 10.6971 37.687 10.2191Z" fill="black"/>
<path id="Vector_4" d="M21.6807 23.1022C22.6112 24.0327 24.1198 24.0327 25.0503 23.1022C25.9808 22.1718 25.9808 20.6631 25.0503 19.7326L16.09 10.7722C15.1596 9.84187 13.6509 9.84187 12.7204 10.7722C11.7898 11.7026 11.7898 13.2113 12.7204 14.1418L21.6807 23.1022Z" fill="black"/>
<path id="Vector_5" d="M58.879 23.1022L67.8394 14.1418C68.7699 13.2115 68.7699 11.7028 67.8394 10.7722C66.909 9.84187 65.4003 9.84187 64.4698 10.7722L55.5094 19.7326C54.5789 20.6629 54.5789 22.1717 55.5094 23.1022C56.4399 24.0327 57.9485 24.0326 58.879 23.1022Z" fill="black"/>
</g>
</g>
<defs>
<clipPath id="clip0_2_149">
<rect width="80" height="80" fill="white"/>
</clipPath>
</defs>
</svg>
